HIERARCHY
ROOT pelvis
{
  OFFSET 0 100 0
  CHANNELS 6 Xposition Yposition Zposition Zrotation Xrotation Yrotation
  JOINT pelvis_right_femur
  {
    OFFSET -10.78128 -3.44521 -0.5502486
    CHANNELS 3 Zrotation Xrotation Yrotation
    JOINT right_femur_tibia
    {
      OFFSET -0.8047443 -44.0398 -0.1307829
      CHANNELS 3 Zrotation Xrotation Yrotation
      JOINT right_tibia_foot
      {
        OFFSET 3.006224 -47.83518 -5
        CHANNELS 3 Zrotation Xrotation Yrotation
        End Site
        {
          OFFSET 0 -5 15
        }
      }
    }
  }
  JOINT pelvis_left_femur
  {
    OFFSET 10.78128 -3.44521 -0.5502486
    CHANNELS 3 Zrotation Xrotation Yrotation
    JOINT left_femur_tibia
    {
      OFFSET 0.8047443 -44.0398 -0.1307829
      CHANNELS 3 Zrotation Xrotation Yrotation
      JOINT left_tibia_foot
      {
        OFFSET -4.370144 -48.10324 -4.275266
        CHANNELS 3 Zrotation Xrotation Yrotation
        End Site
        {
          OFFSET 0 -5 15
        }
      }
    }
  }
  JOINT pelvis_spine1
  {
    OFFSET 0 6.468898 -3.129235
    CHANNELS 3 Zrotation Xrotation Yrotation
    JOINT spine1
    {
      OFFSET 0 23.15396 4.99043
      CHANNELS 3 Zrotation Xrotation Yrotation
      JOINT spine2
      {
        OFFSET 0 20.79997 -5.064912
        CHANNELS 3 Zrotation Xrotation Yrotation
        JOINT neck
        {
          OFFSET 0 14.38658 9.616178
          CHANNELS 3 Zrotation Xrotation Yrotation
          End Site
          {
            OFFSET 0 20 0
          }
        }
      }
      JOINT right_manubrium
      {
        OFFSET -5.722621 16.35077 3.967754
        CHANNELS 3 Zrotation Xrotation Yrotation
        JOINT right_clavicle
        {
          OFFSET -13.16364 1.694482 -4.693211
          CHANNELS 3 Zrotation Xrotation Yrotation
          JOINT right_humerus
          {
            OFFSET -28.5034 -0.3100689 -2.792744
            CHANNELS 3 Zrotation Xrotation Yrotation
            JOINT right_radius
            {
              OFFSET -25.15693 0.02248979 -1.271978
              CHANNELS 3 Zrotation Xrotation Yrotation
              End Site
              {
                OFFSET -15 0 0
              }
            }
          }
        }
      }
      JOINT left_manubrium
      {
        OFFSET 5.722621 16.35077 3.967754
        CHANNELS 3 Zrotation Xrotation Yrotation
        JOINT left_clavicle
        {
          OFFSET 13.16364 1.694482 -4.693211
          CHANNELS 3 Zrotation Xrotation Yrotation
          JOINT left_humerus
          {
            OFFSET 29.39168 -1.063119 -2.237045
            CHANNELS 3 Zrotation Xrotation Yrotation
            JOINT left_radius
            {
              OFFSET 24.59957 -0.9528479 0.9047498
              CHANNELS 3 Zrotation Xrotation Yrotation
              End Site
              {
                OFFSET 15 -0 -0
              }
            }
          }
        }
      }
    }
  }
}
MOTION
Frames: 7
Frame Time: 0.0416666666667
-1202.687 105.2868 -336.9469 7.441029 3.656242 120.2993 5.495884 13.57456 2.182682 -0 17.38544 -0 -10.35092 -13.70199 -1.795403 3.802362 -17.31021 -0.8386873 -0 14.42321 -0 3.984717 0.0946355 13.78332 0.8260972 -4.205071 8.698664 0.9733079 16.4771 -6.566441 -0.1813247 18.17779 2.563018 1.684473 -17.07363 2.282668 0.6907892 -31.40982 13.22388 86.27196 17.40772 -10.07961 -0 0 31.22223 -19.19299 14.63318 12.94223 1.792461 -23.65957 -8.473475 -95.11165 8.436009 39.24423 0 0 -8.334295 6.243129 10.28639 5.791563
-1198.334 105.2832 -341.0831 7.471441 3.593413 119.8183 5.495884 13.57456 2.182682 -0 17.38544 -0 -10.35092 -13.70199 -1.795403 3.802362 -17.31021 -0.8386873 -0 14.42321 -0 3.984717 0.0946355 13.78332 0.8260972 -4.205071 8.698664 0.9733079 16.4771 -6.566441 -0.1813247 18.17779 2.563018 1.684473 -17.07363 2.282668 0.6907892 -31.40982 13.22388 86.27196 17.40772 -10.07961 -0 0 31.22223 -19.19299 14.63318 12.94223 1.792461 -23.65957 -8.473475 -95.11165 8.436009 39.24423 0 0 -8.334295 6.243129 10.28639 5.791563
-1193.947 105.2797 -345.1824 7.501322 3.530331 119.3373 5.495884 13.57456 2.182682 -0 17.38544 -0 -10.35092 -13.70199 -1.795403 3.802362 -17.31021 -0.8386873 -0 14.42321 -0 3.984717 0.0946355 13.78332 0.8260972 -4.205071 8.698664 0.9733079 16.4771 -6.566441 -0.1813247 18.17779 2.563018 1.684473 -17.07363 2.282668 0.6907892 -31.40982 13.22388 86.27196 17.40772 -10.07961 -0 0 31.22223 -19.19299 14.63318 12.94223 1.792461 -23.65957 -8.473475 -95.11165 8.436009 39.24423 0 0 -8.334295 6.243129 10.28639 5.791563
-1189.525 105.2761 -349.2445 7.530669 3.467001 118.8564 5.495884 13.57456 2.182682 -0 17.38544 -0 -10.35092 -13.70199 -1.795403 3.802362 -17.31021 -0.8386873 -0 14.42321 -0 3.984717 0.0946355 13.78332 0.8260972 -4.205071 8.698664 0.9733079 16.4771 -6.566441 -0.1813247 18.17779 2.563018 1.684473 -17.07363 2.282668 0.6907892 -31.40982 13.22388 86.27196 17.40772 -10.07961 -0 0 31.22223 -19.19299 14.63318 12.94223 1.792461 -23.65957 -8.473475 -95.11165 8.436009 39.24423 0 0 -8.334295 6.243129 10.28639 5.791563
-1185.068 105.2726 -353.2691 7.559481 3.403427 118.3756 5.495884 13.57456 2.182682 -0 17.38544 -0 -10.35092 -13.70199 -1.795403 3.802362 -17.31021 -0.8386873 -0 14.42321 -0 3.984717 0.0946355 13.78332 0.8260972 -4.205071 8.698664 0.9733079 16.4771 -6.566441 -0.1813247 18.17779 2.563018 1.684473 -17.07363 2.282668 0.6907892 -31.40982 13.22388 86.27196 17.40772 -10.07961 -0 0 31.22223 -19.19299 14.63318 12.94223 1.792461 -23.65957 -8.473475 -95.11165 8.436009 39.24423 0 0 -8.334295 6.243129 10.28639 5.791563
-1180.578 105.269 -357.2559 7.587755 3.339614 117.8948 5.495884 13.57456 2.182682 -0 17.38544 -0 -10.35092 -13.70199 -1.795403 3.802362 -17.31021 -0.8386873 -0 14.42321 -0 3.984717 0.0946355 13.78332 0.8260972 -4.205071 8.698664 0.9733079 16.4771 -6.566441 -0.1813247 18.17779 2.563018 1.684473 -17.07363 2.282668 0.6907892 -31.40982 13.22388 86.27196 17.40772 -10.07961 -0 0 31.22223 -19.19299 14.63318 12.94223 1.792461 -23.65957 -8.473475 -95.11165 8.436009 39.24423 0 0 -8.334295 6.243129 10.28639 5.791563
-1176.055 105.2654 -361.2046 7.61549 3.275567 117.4141 5.495884 13.57456 2.182682 -0 17.38544 -0 -10.35092 -13.70199 -1.795403 3.802362 -17.31021 -0.8386873 -0 14.42321 -0 3.984717 0.0946355 13.78332 0.8260972 -4.205071 8.698664 0.9733079 16.4771 -6.566441 -0.1813247 18.17779 2.563018 1.684473 -17.07363 2.282668 0.6907892 -31.40982 13.22388 86.27196 17.40772 -10.07961 -0 0 31.22223 -19.19299 14.63318 12.94223 1.792461 -23.65957 -8.473475 -95.11165 8.436009 39.24423 0 0 -8.334295 6.243129 10.28639 5.791563
